/* XPM */
static char * collectible_xpm[] = {
"40 40 234 2",
"  	c #AEAC95",
". 	c #A3A28D",
"+ 	c #97917F",
"@ 	c #97927F",
"# 	c #908A7B",
"$ 	c #948E7D",
"% 	c #878176",
"& 	c #837D74",
"* 	c #8B8678",
"= 	c #938D7D",
"- 	c #7E7871",
"; 	c #8C8679",
"> 	c #96917F",
", 	c #66625D",
"' 	c #68645E",
") 	c #67635E",
"! 	c #544A46",
"~ 	c #57504B",
"{ 	c #685D50",
"] 	c #66615C",
"^ 	c #66615D",
"/ 	c #5C5550",
"( 	c #807972",
"_ 	c #57514D",
": 	c #5D5853",
"< 	c #57524D",
"[ 	c #635E59",
"} 	c #4F433F",
"| 	c #6F6A64",
"1 	c #422F2C",
"2 	c #4E413E",
"3 	c #57504C",
"4 	c #544B47",
"5 	c #59534E",
"6 	c #564E4A",
"7 	c #4F4440",
"8 	c #4E423E",
"9 	c #6C6762",
"0 	c #554E4A",
"a 	c #7B756E",
"b 	c #7F7871",
"c 	c #514A46",
"d 	c #736E68",
"e 	c #544C48",
"f 	c #57514C",
"g 	c #544E4A",
"h 	c #7F7971",
"i 	c #514642",
"j 	c #58534E",
"k 	c #625D58",
"l 	c #615C57",
"m 	c #989280",
"n 	c #66625E",
"o 	c #58524E",
"p 	c #65605B",
"q 	c #64605B",
"r 	c #524844",
"s 	c #504541",
"t 	c #6C665C",
"u 	c #69645D",
"v 	c #817254",
"w 	c #BD971B",
"x 	c #897650",
"y 	c #989380",
"z 	c #5D5854",
"A 	c #59534F",
"B 	c #7A6D57",
"C 	c #BD971C",
"D 	c #847E74",
"E 	c #5F5A56",
"F 	c #5C5753",
"G 	c #7F7055",
"H 	c #BB9620",
"I 	c #BA9521",
"J 	c #7C6F55",
"K 	c #7F7155",
"L 	c #78726B",
"M 	c #4E4440",
"N 	c #534B47",
"O 	c #716A5E",
"P 	c #534743",
"Q 	c #78736C",
"R 	c #BE9719",
"S 	c #BE9818",
"T 	c #A28640",
"U 	c #64625F",
"V 	c #B68A13",
"W 	c #A16300",
"X 	c #644527",
"Y 	c #5E5854",
"Z 	c #65625E",
"` 	c #898377",
" .	c #9B9582",
"..	c #716A64",
"+.	c #726D65",
"@.	c #69645F",
"#.	c #867452",
"$.	c #766B59",
"%.	c #6A645D",
"&.	c #A7883C",
"*.	c #B99523",
"=.	c #89774E",
"-.	c #8A784D",
";.	c #9B5F0E",
">.	c #A8740C",
",.	c #A48539",
"'.	c #9D875B",
").	c #AB8C37",
"!.	c #524945",
"~.	c #65615D",
"{.	c #8A7750",
"].	c #A3863F",
"^.	c #9B8145",
"/.	c #63615F",
"(.	c #616060",
"_.	c #796D58",
":.	c #BF9816",
"<.	c #544B49",
"[.	c #494546",
"}.	c #535151",
"|.	c #595556",
"1.	c #888375",
"2.	c #74706E",
"3.	c #B18F30",
"4.	c #70685B",
"5.	c #957E49",
"6.	c #89764C",
"7.	c #C1A537",
"8.	c #BD9D27",
"9.	c #C2B860",
"0.	c #878177",
"a.	c #927C4B",
"b.	c #B3912D",
"c.	c #837353",
"d.	c #66635E",
"e.	c #BE9A1E",
"f.	c #C6AA2F",
"g.	c #837758",
"h.	c #65625F",
"i.	c #6B6661",
"j.	c #78726C",
"k.	c #68635E",
"l.	c #A18541",
"m.	c #A98A39",
"n.	c #AB8B37",
"o.	c #947D4A",
"p.	c #827D74",
"q.	c #8C784F",
"r.	c #907B4C",
"s.	c #8D784E",
"t.	c #72695A",
"u.	c #827254",
"v.	c #917B4C",
"w.	c #8B8679",
"x.	c #A08442",
"y.	c #7C6F56",
"z.	c #B79327",
"A.	c #977E48",
"B.	c #A6883C",
"C.	c #887651",
"D.	c #877551",
"E.	c #987F47",
"F.	c #AF8E32",
"G.	c #736959",
"H.	c #6E665B",
"I.	c #8A774F",
"J.	c #807054",
"K.	c #847352",
"L.	c #786C57",
"M.	c #837253",
"N.	c #887550",
"O.	c #979280",
"P.	c #6F6A65",
"Q.	c #908B7B",
"R.	c #938E7D",
"S.	c #8B8578",
"T.	c #918B7C",
"U.	c #958F7E",
"V.	c #68645F",
"W.	c #615C58",
"X.	c #493B38",
"Y.	c #473834",
"Z.	c #373331",
"`.	c #3A3431",
" +	c #413633",
".+	c #333230",
"++	c #5A5450",
"@+	c #595450",
"#+	c #463734",
"$+	c #3E3532",
"%+	c #483B37",
"&+	c #67625D",
"*+	c #746E68",
"=+	c #433D3A",
"-+	c #000202",
";+	c #000000",
">+	c #423E3B",
",+	c #2F2B29",
"'+	c #000101",
")+	c #5F5954",
"!+	c #716B64",
"~+	c #403E35",
"{+	c #34312E",
"]+	c #3F3C34",
"^+	c #393631",
"/+	c #373430",
"(+	c #434036",
"_+	c #6B6762",
":+	c #56514C",
"<+	c #393630",
"[+	c #413E35",
"}+	c #726C66",
"|+	c #58524D",
"1+	c #4F4340",
"2+	c #564D48",
"3+	c #6E6559",
"4+	c #66605A",
"5+	c #67605A",
"6+	c #726B60",
"7+	c #6C655D",
"8+	c #645952",
"9+	c #736B5E",
"0+	c #6F6658",
"a+	c #746D60",
"b+	c #5D534E",
"c+	c #504542",
"d+	c #504642",
"e+	c #625C57",
"f+	c #6D6459",
"g+	c #605650",
"h+	c #69625A",
"i+	c #6D6357",
"j+	c #534844",
"k+	c #463532",
"  . + @ @ # $ @ $ # % & * = - - - ; & % # $ @ @ @ @ @ @ @ @ @ @ @ @ @ # $ @ $ # ",
"> , ' ) ) ) ) ) ) ) ) ) ) ) ) ) ) ) ) ) ) ) ) ) ) ) ) ) ) ) ) ) ) ) ) ) , ' ) ! ",
"; ~ { ] ) ) ) ) ) ) ) ) ) ) ) ) ) ) ) ) ) ) ) ) ) ) ) ) ) ) ) ) ) ) ) ) ~ { ^ / ",
"( _ : ) ) ) ) ) ) ) ) ) ) ) ) ) ) ) ) ) ) ) ) ) ) ) ) ) ) ) ) ) ) ) ) ) < : ) [ ",
"- ) ) ) ) ) ) ) ) ) ) ) ) ) ) ) ) ) ) ) ) ) ) ) ) ) ) ) ) ) ) ) ) ) ) ) ) ) ) } ",
"| ) ) ) ) 1 2 } } } } 3 4 5 5 5 5 5 5 5 5 5 5 5 5 5 5 5 5 5 6 3 4 7 8 ) ) ) ) } ",
"9 ) ) ) ) 2 _ 0 0 0 0 0 0 0 0 0 0 0 0 0 0 0 0 0 0 0 0 0 0 0 0 0 0 < a ) ) ) ) } ",
"b ) ) ) ) 4 0 c c c c c c c c c c c c c c c c c c c c c c c c c c 0 d ) ) ) ) e ",
"- ) ) ) ) f 0 c c c c c c c c c c c c c c c c c c c c c c c c c c g h ) ) ) ) i ",
"- ) ) ) ) 6 g c c c c c c c c c c c c c c c c c c c c c c c c c c g b ) ) ) ) 5 ",
"- ) ) ) ) j k l l l l l l l l l l l l l l l l l l l l l l l l l l k m n ) ) ) 6 ",
"- ) ) ) ) o p q q q q q q q q q q q q q q q q q q q q q q q q q q q m n ) ) ) 3 ",
"- ) ) ) ) o ) ) ) ) ) ) ) ) ) ) ) ) ) ) ) ) ) ) ) ) ) ) ) ) ) ) ) ) m n ) ) ) } ",
"- ) ) ) ) o ) ) ) ) ) ) ) ) ) ) ) ) ) ) ) ) ) ) ) ) ) ) ) ) ) ) ) ) m n ) ) ) } ",
"- ) ) ) ) j ) ) ) ) ) ) ) ) ) ) ) ) ) ) ) ) ) ) ) ) ) ) ) ) ) ) ) ) m n ) ) ) } ",
"- ) ) ) ) r ) ) ) ) ) ) ) ) ) ) ) ) ) ) ) ) ) ) ) ) ) ) ) ) ) ) ) ) m n ) ) ) } ",
"- ) ) ) ) s ) ) ) ) ) ) ) ) ) ) ) ) t u u t ) ) ) ) ) ) ) ) ) ) ) ) m n ) ) ) 7 ",
"b ) ) ) ) } ) ) ) ) ) ) ) ) ) ) ) v w x x w v ) ) ) ) ) ) ) ) ) ) ) y n ) ) ) 4 ",
"9 ) ) ) ) } ) ) ) ) ) q z A ) ) B C w x x w C B ) ) ) ) ) ) ) ) ) ) D ) ) ) ) 3 ",
"| ) ) ) ) } ) ) ) z o E F ) ) G H w I J J I w H K ) ) ) ) ) ) ) ) ) % ) ) ) ) 6 ",
"L ) ) ) 6 M E N O P Q ) ) ) G R w S T U U T S V W X Y n Z ) ) ) ) ) b ) ) ) ) j ",
"a ) ) ) } `  ...+.@.#.$.%.) &.I *.=.' T T ' -.;.>.,._ '.).Z ) ) ) ) b ) ) ) ) j ",
"- ) ) ) j !.~.) ) ) {.].^.) /.(.(.n _.:.:._.<.[.}.|.1.2.3.U ) ) ) ) b ) ) ) ) j ",
"- ) ) ) ) o ) ) ) ) u 4.5.) &.I *.=.' T T ' 6.7.8.9.0.a.b.c.) ) ) ) b ) ) ) ) j ",
"- ) ) ) ) r ) ) ) ) ) ) d.) G R w S T U U T S e.f.g.n d.h.d.) ) ) ) b ) ) ) ) j ",
"| ) ) ) ) } ) ) ) ) ) ) ) ) ) G H w I J J I w H G ) ) ) ) ) ) ) ) ) b ) ) ) ) 5 ",
"i.) ) ) ) } ) ) ) ) ) ) ) ) ) ) B C w x x w C B ) ) ) ) ) ) ) ) ) ) b ) ) ) ) i ",
") ) ) ) ) } ) ) ) ) ) ) ) ) ) ) ) v w x x w v ) ) ) ) ) ) ) ) ) ) ) b ) ) ) ) 4 ",
") ) ) ) ) } ) ) ) ) ) ) ) ) ) ) ) ) t u u t ) ) ) ) ) ) ) ) ) ) ) ) b ) ) ) ) o ",
"j.) ) ) ) } ) ) ) ) ) ) ) ) ) ) ) ) ) ) ) ) ) ) ) ) ) ) ) ) ) ) ) ) b ) ) ) ) j ",
"| ) ) ) ) } ) ) ) ) ) ) ) ) ) ) ) ) ) ) ) ) ) ) ) n n d.Z ) d.) d.Z % ) ) ) ) j ",
"- ) ) ) ) } ) ) ) ) ) ) ) ) ) ) ) ) ) ) ) ) ) k.k.l.m.a.n.u #.$.o.n.p.) ) ) ) j ",
"- ) ) ) ) } ) ) ) ) ) ) ) ) ) ) ) ) ) ) d.) n 4.B q.a.v r.s._.t.u.v.w.d.) ) ) 4 ",
"- ) ) ) ) } ) ) ) ) ) ) ) ) ) ) ) ) ) ) x _.x.y.x s.z.A.3.B.C.D.E.F.> n ) ) ) 3 ",
"- ) ) ) ) 8 ) ) n n n n n n n n n d.n n G.H.I.H.t.J.K.L.M.G t.N.L.K.O.n ) ) ) } ",
"b ) ) ) ) P.h - + m m m m m m Q.R.S.m m m m m m m m m m m % T.U.m m m d.) ) ) } ",
"9 , V.) ) W.X.Y.Z.`. +.+.+.+ +++) ) ) ) ) ) ) ) @+#+#+$+Z.`..+.+.+%+W.) &+V.) } ",
"*+~ { ] ) =+-+;+;+;+;+;+;+;+;+>+V.) ) ) ) ) ) q ,+;+;+;+;+;+;+;+;+'+)+) ~ { , } ",
"a < z ) ) !+~+{+{+]+^+/+(+(+(+< 9 ) ) ) ) ) ) _+:+]+{+{+~+]+<+(+(+[+}+) |+z ) } ",
"0 1+1+} 6 2+3+4+5+6+7+8+9+0+a+b+c+} d+r 5 j j o e+f+g+5+3+f+h+0+0+i+j+} 7 1+} k+"};
