/* XPM */
static char * enemy_xpm[] = {
"40 40 169 2",
"  	c #FEFEFE",
". 	c #FDFEFD",
"+ 	c #F1F2F1",
"@ 	c #FDFEFE",
"# 	c #D9DADB",
"$ 	c #4C4F51",
"% 	c #F0F1F1",
"& 	c #717376",
"* 	c #BBBDBF",
"= 	c #FCFDFE",
"- 	c #5A5D63",
"; 	c #CBCDCE",
"> 	c #BCBEBF",
", 	c #696B6E",
"' 	c #F0F2F2",
") 	c #FEFEFD",
"! 	c #FCFCFC",
"~ 	c #9A9B9D",
"{ 	c #868889",
"] 	c #FAFBFB",
"^ 	c #F4F6F6",
"/ 	c #55595C",
"( 	c #D3D5D6",
"_ 	c #EBEBEC",
": 	c #E5E6E6",
"< 	c #F7F9FA",
"[ 	c #A2A4A5",
"} 	c #E9E9EA",
"| 	c #F6F9F9",
"1 	c #5A5E62",
"2 	c #D0D3D3",
"3 	c #F3F3F4",
"4 	c #616569",
"5 	c #C1C2C2",
"6 	c #FDFDFD",
"7 	c #FEFDFF",
"8 	c #B2B5B6",
"9 	c #787B7D",
"0 	c #F6F6F7",
"a 	c #FEFEFC",
"b 	c #BCBFBF",
"c 	c #808284",
"d 	c #F8FBFA",
"e 	c #C1C4C5",
"f 	c #727579",
"g 	c #FBFDFC",
"h 	c #FDFFFD",
"i 	c #FEFDFE",
"j 	c #7B7E81",
"k 	c #BFC1C3",
"l 	c #F7F9F9",
"m 	c #F6F9F8",
"n 	c #CCCECE",
"o 	c #5F6568",
"p 	c #ADB0B2",
"q 	c #818485",
"r 	c #FAFAFA",
"s 	c #F1F3F3",
"t 	c #F9FAFA",
"u 	c #808385",
"v 	c #9FA1A2",
"w 	c #FCFCFD",
"x 	c #F5F7F7",
"y 	c #787B7E",
"z 	c #A4A7A9",
"A 	c #FDFDFE",
"B 	c #9C9E9F",
"C 	c #B8BBBC",
"D 	c #F8FAFA",
"E 	c #EEF0F1",
"F 	c #64666A",
"G 	c #C3C4C5",
"H 	c #EBEDEE",
"I 	c #525659",
"J 	c #D5D7D8",
"K 	c #BDBFBF",
"L 	c #393E47",
"M 	c #797B7D",
"N 	c #E7E9E9",
"O 	c #FDFEFF",
"P 	c #C3C5C7",
"Q 	c #717476",
"R 	c #FCFEFE",
"S 	c #8E9193",
"T 	c #B2B3B5",
"U 	c #929396",
"V 	c #393F46",
"W 	c #4F5358",
"X 	c #A4A6A8",
"Y 	c #8F9193",
"Z 	c #E3E5E5",
"` 	c #494C52",
" .	c #DFE0E1",
"..	c #F4F5F6",
"+.	c #A5A7A8",
"@.	c #384045",
"#.	c #41454A",
"$.	c #CFD0D2",
"%.	c #F7F7F8",
"&.	c #797C7E",
"*.	c #E8EAEB",
"=.	c #E8EAEA",
"-.	c #D1D1D3",
";.	c #F8F8F9",
">.	c #BABDBF",
",.	c #565B5F",
"'.	c #394046",
").	c #3A4045",
"!.	c #393F45",
"~.	c #44484B",
"{.	c #DEDFE1",
"].	c #F8F8F8",
"^.	c #3A3F48",
"/.	c #74777A",
"(.	c #FEFEFF",
"_.	c #E1E4E5",
":.	c #393F44",
"<.	c #3A4046",
"[.	c #373E45",
"}.	c #F1F3F4",
"|.	c #E6E6E7",
"1.	c #B0B2B4",
"2.	c #ABACAF",
"3.	c #A2A6A8",
"4.	c #3A3F45",
"5.	c #373E46",
"6.	c #A4A6A9",
"7.	c #CDD0D0",
"8.	c #FCFCFA",
"9.	c #EBECEC",
"0.	c #4B5055",
"a.	c #383F45",
"b.	c #B1B4B4",
"c.	c #C6C7C8",
"d.	c #393F43",
"e.	c #4D5155",
"f.	c #FBFCFC",
"g.	c #C9CACB",
"h.	c #585C5F",
"i.	c #FBFDFD",
"j.	c #D1D3D4",
"k.	c #3F454B",
"l.	c #9C9EA1",
"m.	c #F3F5F5",
"n.	c #EAEBED",
"o.	c #6B6E71",
"p.	c #4D5055",
"q.	c #CBCDCF",
"r.	c #FFFFFF",
"s.	c #98989A",
"t.	c #393F47",
"u.	c #41474C",
"v.	c #ECECED",
"w.	c #686B6E",
"x.	c #C9CCCB",
"y.	c #FEFFFF",
"z.	c #D4D6D5",
"A.	c #BDC0C1",
"B.	c #787C7E",
"C.	c #F8FAF9",
"D.	c #FAFDFD",
"E.	c #C1C3C4",
"F.	c #838688",
"G.	c #7A7D80",
"H.	c #7A7D81",
"I.	c #7E8083",
"J.	c #ADAFB0",
"K.	c #F2F4F4",
"L.	c #FDFFFE",
"                                                                                ",
"                                                                                ",
"                                                                                ",
"                                    . + @                                       ",
"                                    # $ %                                       ",
"                                  @ & * @                                       ",
"                                  = - ;                                         ",
"                                    > , ' )                                     ",
"                                    ! ~ { ]                                     ",
"                                      ^ / ( .       ) _ :                       ",
"                    < [ }             | 1 2 .       3 4 5 6                     ",
"                  7 8 9 0           a b c d @       e f g h                     ",
"                  i j k @             l m @         n o |                       ",
"                    p q r           6 s )           t u v w )                   ",
"                    x y z A           B C D           E F G )                   ",
"                    @ H I J           K L M N O         P Q )                   ",
"                      R S T )       6 U V V W J O     6 X Y                     ",
"                      Z `  .)   @ ..+.@.V V V #.$.@   %.&.*.                    ",
"                      =.-.    ;.>.,.'.).V V V !.~.{.  ) . @                     ",
"                            ].9 ^.!.!.V V V V V V /.!                           ",
"                        O (._.:.<.V V V V V V V V [.}.                          ",
"                      |.1.2.3.4.V V V V V V V V V 5.6.7.8.                      ",
"                    9.0.!.!.V V V V V V V V V V V V !.a.b.@                     ",
"                    c.d.V V V V V V V V V V V V V V V !.e.f.                    ",
"                    g.).V V V V V V V V V V V V V V V !.h.i.                    ",
"                  t j.k.V V V V V V V V V V V V V V V V l.m.                    ",
"                n.o.'.^.V V V V V V V V V V V V V V V V !.p.q.r.r.              ",
"                s.t.V V V V V V V V V V V V V V V V V V V V u.v.r.              ",
"              (.w.!.V V V V V V V V V V V V V V V V V V V V V x.y.              ",
"              (./.!.V V V V V V V V V V V V V V V V V V V V a.z.r.              ",
"              (.A.4.V V V V V V V V V V V V V V V !.V V V a.B.C.r.              ",
"                D.E.F.G.H.G.G.G.G.H.G.G.H.G.H.G.G.G.G.G.I.J.K.  r.              ",
"                  @ L.O O O O O O O O O O O O O O @ O O (.@                     ",
"                                                                                ",
"                                                                                ",
"                                                                                ",
"                                                                                ",
"                                                                                ",
"                                                                                ",
"                                                                                "};
