/* XPM */
static char * player_xpm[] = {
"40 40 875 2",
"  	c #9AABA3",
". 	c #B3B2A0",
"+ 	c #BFB8A1",
"@ 	c #BFB69E",
"# 	c #BFB59B",
"$ 	c #BFB49A",
"% 	c #BEB499",
"& 	c #BFB398",
"* 	c #C0B397",
"= 	c #C1B296",
"- 	c #C1B196",
"; 	c #C0B095",
"> 	c #C0B094",
", 	c #C1B194",
"' 	c #C2B195",
") 	c #C1B195",
"! 	c #C2B295",
"~ 	c #C3B296",
"{ 	c #C1B295",
"] 	c #C1B197",
"^ 	c #C1B298",
"/ 	c #C1B299",
"( 	c #C1B29A",
"_ 	c #C2B29A",
": 	c #C1B49A",
"< 	c #C2B59C",
"[ 	c #C2B69C",
"} 	c #C2B69D",
"| 	c #C3B79E",
"1 	c #C4B99F",
"2 	c #C5BAA1",
"3 	c #C4BAA4",
"4 	c #B9B7A5",
"5 	c #A8B4AA",
"6 	c #9A8A74",
"7 	c #C09B75",
"8 	c #D3AB80",
"9 	c #D4AB7E",
"0 	c #D4AA7C",
"a 	c #D4AA7B",
"b 	c #D3AA7B",
"c 	c #D3A97A",
"d 	c #D4A97A",
"e 	c #D5AA7A",
"f 	c #D6AA7B",
"g 	c #D6A97B",
"h 	c #D5AA7B",
"i 	c #D6AB7B",
"j 	c #D6AC7D",
"k 	c #D6AD7E",
"l 	c #D6AD7F",
"m 	c #D7AD7F",
"n 	c #D7AC7E",
"o 	c #D6AB7D",
"p 	c #D7AC7F",
"q 	c #D7AD80",
"r 	c #D7AC80",
"s 	c #D6AC80",
"t 	c #D6AD81",
"u 	c #D6AD82",
"v 	c #D7AC82",
"w 	c #D7AC81",
"x 	c #D6AB7F",
"y 	c #D7AE80",
"z 	c #D7AF81",
"A 	c #D8B082",
"B 	c #D8B083",
"C 	c #D9AF83",
"D 	c #D6AE84",
"E 	c #C3A07C",
"F 	c #A8957B",
"G 	c #967E64",
"H 	c #BE9167",
"I 	c #D4A777",
"J 	c #D5A877",
"K 	c #D6A877",
"L 	c #D7A877",
"M 	c #D6A878",
"N 	c #D7A878",
"O 	c #D8A979",
"P 	c #D9AA7A",
"Q 	c #D9AB7B",
"R 	c #D9AC7C",
"S 	c #D8AD7D",
"T 	c #D9AD7E",
"U 	c #DAAE7E",
"V 	c #DAAC7D",
"W 	c #D9AB7D",
"X 	c #DAAD7F",
"Y 	c #D9AD7F",
"Z 	c #D9AD80",
"` 	c #DAAD81",
" .	c #DBAD80",
"..	c #DAAC7F",
"+.	c #D9AC7D",
"@.	c #D8AB7C",
"#.	c #DAAE7D",
"$.	c #DBAF80",
"%.	c #DCAF80",
"&.	c #D8AB7D",
"*.	c #C3986E",
"=.	c #A58869",
"-.	c #957C63",
";.	c #BA8F64",
">.	c #D2A474",
",.	c #D3A674",
"'.	c #D4A675",
").	c #D3A575",
"!.	c #D4A576",
"~.	c #D5A676",
"{.	c #D6A777",
"].	c #D6A879",
"^.	c #D7AA7A",
"/.	c #D6AA7A",
"(.	c #D7AB7B",
"_.	c #D8AB7B",
":.	c #D6A979",
"<.	c #D6A97A",
"[.	c #D7AA7B",
"}.	c #D7AA7C",
"|.	c #D7AB7D",
"1.	c #D8AC7E",
"2.	c #D9AC7E",
"3.	c #D7AB7A",
"4.	c #DAAE7F",
"5.	c #DBAF7F",
"6.	c #DBAE7E",
"7.	c #C2976A",
"8.	c #A58566",
"9.	c #927961",
"0.	c #B88C60",
"a.	c #D0A271",
"b.	c #D2A572",
"c.	c #D2A472",
"d.	c #D1A372",
"e.	c #D1A272",
"f.	c #D1A273",
"g.	c #D2A373",
"h.	c #D3A474",
"i.	c #D3A473",
"j.	c #D4A575",
"k.	c #D5A776",
"l.	c #D5A777",
"m.	c #D5A878",
"n.	c #D8AA7B",
"o.	c #D8AB7A",
"p.	c #D9AD7C",
"q.	c #DAAD7E",
"r.	c #DAAD7D",
"s.	c #C29669",
"t.	c #A48565",
"u.	c #8F765E",
"v.	c #B6895D",
"w.	c #CFA06F",
"x.	c #D1A371",
"y.	c #D1A370",
"z.	c #D0A170",
"A.	c #CF9F70",
"B.	c #D0A071",
"C.	c #D1A172",
"D.	c #D2A67A",
"E.	c #D3AD87",
"F.	c #D5B191",
"G.	c #D5B293",
"H.	c #D4B08E",
"I.	c #D4AC84",
"J.	c #D3A87A",
"K.	c #D3A676",
"L.	c #D4A676",
"M.	c #D5A77A",
"N.	c #D5AC85",
"O.	c #D4B290",
"P.	c #D5B596",
"Q.	c #D7B595",
"R.	c #D9B38F",
"S.	c #D9AF85",
"T.	c #DAAC7C",
"U.	c #C2966A",
"V.	c #A58666",
"W.	c #8D745C",
"X.	c #B5885C",
"Y.	c #CE9E6D",
"Z.	c #D0A16F",
"`.	c #D0A06F",
" +	c #CF9E6F",
".+	c #D09F70",
"++	c #D0A072",
"@+	c #D1A881",
"#+	c #D4B99E",
"$+	c #D7C8B8",
"%+	c #D8CFC6",
"&+	c #D8D0C9",
"*+	c #D7CCC2",
"=+	c #D6C3B1",
"-+	c #D5B699",
";+	c #D3AB82",
">+	c #D3A777",
",+	c #D3A675",
"'+	c #D2A87E",
")+	c #D3B294",
"!+	c #D6C2AF",
"~+	c #D7CDC1",
"{+	c #D8D1C9",
"]+	c #D9D1C7",
"^+	c #D9CABC",
"/+	c #D8BEA7",
"(+	c #D8B28E",
"_+	c #D7AC7D",
":+	c #D7AA79",
"<+	c #D8AA7A",
"[+	c #A68869",
"}+	c #8D735B",
"|+	c #B5875B",
"1+	c #CE9D6C",
"2+	c #D0A06E",
"3+	c #D09F6E",
"4+	c #CF9E6D",
"5+	c #CE9E6C",
"6+	c #CE9E6E",
"7+	c #CFA67F",
"8+	c #D3BDA9",
"9+	c #D7D2CB",
"0+	c #DADEDD",
"a+	c #DEE4E6",
"b+	c #E0E6E9",
"c+	c #DEE3E5",
"d+	c #DBDCDA",
"e+	c #D9D0C6",
"f+	c #D6BBA3",
"g+	c #D2AA81",
"h+	c #D1A373",
"i+	c #D0A67B",
"j+	c #D1B69A",
"k+	c #D5CBBF",
"l+	c #DBDAD7",
"m+	c #DFE2E3",
"n+	c #E0E6E8",
"o+	c #DFE5E6",
"p+	c #DBDFDE",
"q+	c #D8D4CE",
"r+	c #D7C4B0",
"s+	c #D7B28D",
"t+	c #D7A978",
"u+	c #C19569",
"v+	c #A5896B",
"w+	c #B6875C",
"x+	c #CF9F6D",
"y+	c #CF9E6C",
"z+	c #CE9D6B",
"A+	c #CD9C6A",
"B+	c #CB9E70",
"C+	c #CEB49C",
"D+	c #D4D1CA",
"E+	c #DAE0E2",
"F+	c #E0E8EC",
"G+	c #E6EDF0",
"H+	c #E9EFF2",
"I+	c #E9F0F1",
"J+	c #E4ECEC",
"K+	c #DDE2E1",
"L+	c #D8CFC7",
"M+	c #D3B59A",
"N+	c #CFA479",
"O+	c #CFAE90",
"P+	c #D3C9BE",
"Q+	c #D9DEDD",
"R+	c #E2E9EB",
"S+	c #E8EEF1",
"T+	c #EBEFF3",
"U+	c #EAEFF3",
"V+	c #E3EBEE",
"W+	c #DBE4E3",
"X+	c #D8D6CE",
"Y+	c #D6C0A9",
"Z+	c #D6AC83",
"`+	c #D7A777",
" @	c #D6A876",
".@	c #C09468",
"+@	c #A3896B",
"@@	c #8C745B",
"#@	c #B7895D",
"$@	c #CF9D6C",
"%@	c #CD9C6B",
"&@	c #C9A47F",
"*@	c #CCC3B7",
"=@	c #D5DCDB",
"-@	c #DCE4E7",
";@	c #DFE7EA",
">@	c #D9E0E2",
",@	c #D3D9DA",
"'@	c #DBE1E2",
")@	c #E2E9E9",
"!@	c #E0E8EA",
"~@	c #DADCDD",
"{@	c #D4C2B4",
"]@	c #CEAB8B",
"^@	c #CEBAA8",
"/@	c #D6D7D5",
"(@	c #DDE6E8",
"_@	c #DFE8EA",
":@	c #DCE2E6",
"<@	c #D8DDE1",
"[@	c #DEE3E7",
"}@	c #E2EAEC",
"|@	c #DFE9EA",
"1@	c #DAE1DE",
"2@	c #D7CEC2",
"3@	c #D6B495",
"4@	c #D6A776",
"5@	c #D5A675",
"6@	c #A1886B",
"7@	c #8C765C",
"8@	c #B7895E",
"9@	c #CF9D6D",
"0@	c #CD9D6E",
"a@	c #C9AC90",
"b@	c #CCCBC7",
"c@	c #D6E0E2",
"d@	c #D6DFE1",
"e@	c #C3CBCE",
"f@	c #A1A8AB",
"g@	c #888E91",
"h@	c #99A0A1",
"i@	c #BEC5C5",
"j@	c #D7DFE1",
"k@	c #DBE2E5",
"l@	c #D4CBC3",
"m@	c #CDB39D",
"n@	c #CFC2B8",
"o@	c #D8DDDE",
"p@	c #D7E2E4",
"q@	c #C3CDD0",
"r@	c #A2AAAD",
"s@	c #8F969A",
"t@	c #A2A8AC",
"u@	c #C3CACC",
"v@	c #D9E2E3",
"w@	c #DDE5E5",
"x@	c #D8D7D0",
"y@	c #D5BBA3",
"z@	c #D6A778",
"A@	c #D6A775",
"B@	c #D4A574",
"C@	c #BF9367",
"D@	c #A0876B",
"E@	c #8E775C",
"F@	c #CF9E6E",
"G@	c #CD9E6F",
"H@	c #C8AE96",
"I@	c #CCCDCA",
"J@	c #D5DFE2",
"K@	c #C2CACD",
"L@	c #90979A",
"M@	c #575E62",
"N@	c #2F393E",
"O@	c #424A4D",
"P@	c #818787",
"Q@	c #BCC4C6",
"R@	c #D6DEE1",
"S@	c #D4CDC7",
"T@	c #CCB6A3",
"U@	c #CFC6BD",
"V@	c #D4DBDC",
"W@	c #C3CED1",
"X@	c #909A9E",
"Y@	c #515C60",
"Z@	c #334147",
"`@	c #535C60",
" #	c #8E9597",
".#	c #C2C9CB",
"+#	c #D9E1E2",
"@#	c #D8D9D5",
"##	c #D3BDA7",
"$#	c #D4A778",
"%#	c #D5A674",
"&#	c #BE9266",
"*#	c #9F866B",
"=#	c #CB9A69",
"-#	c #CD9C6E",
";#	c #C7A98F",
">#	c #CAC9C4",
",#	c #D2DBDD",
"'#	c #ABB2B5",
")#	c #61686C",
"!#	c #353E43",
"~#	c #2C363B",
"{#	c #2E373C",
"]#	c #515859",
"^#	c #A0A8AA",
"/#	c #CED6D8",
"(#	c #D2CBC2",
"_#	c #CAB29C",
":#	c #CBC2B7",
"<#	c #CCD3D4",
"[#	c #ABB5B8",
"}#	c #666F73",
"|#	c #2D3A40",
"1#	c #303D44",
"2#	c #3A444A",
"3#	c #696F72",
"4#	c #A8AFB0",
"5#	c #CFD7D8",
"6#	c #D6D7D3",
"7#	c #D1BBA4",
"8#	c #D5A775",
"9#	c #BD9266",
"0#	c #9E856B",
"a#	c #8B755C",
"b#	c #B4865A",
"c#	c #CF9C6C",
"d#	c #CD9B6C",
"e#	c #C6A180",
"f#	c #C6BFB6",
"g#	c #CDD6D7",
"h#	c #A6AFB2",
"i#	c #596065",
"j#	c #273238",
"k#	c #293337",
"l#	c #4B5155",
"m#	c #9DA3A7",
"n#	c #CCCFCF",
"o#	c #D1C3B4",
"p#	c #C9AA8A",
"q#	c #C7B7A7",
"r#	c #C5C9C8",
"s#	c #A3ACB0",
"t#	c #5D666B",
"u#	c #27333A",
"v#	c #2C383F",
"w#	c #333D43",
"x#	c #63686C",
"y#	c #A4AAAC",
"z#	c #CCD2D3",
"A#	c #D3CEC8",
"B#	c #D1B397",
"C#	c #D3A573",
"D#	c #BE9267",
"E#	c #9E866C",
"F#	c #8B745C",
"G#	c #B4855A",
"H#	c #CB9A6A",
"I#	c #CE9B6A",
"J#	c #CC9A6A",
"K#	c #C89A70",
"L#	c #C3AF9D",
"M#	c #C7CAC9",
"N#	c #B0BABE",
"O#	c #788185",
"P#	c #424B50",
"Q#	c #2F3A3F",
"R#	c #333D41",
"S#	c #6A7174",
"T#	c #ACB1B3",
"U#	c #CBC7C0",
"V#	c #CFB59C",
"W#	c #CCA278",
"X#	c #C8AB8F",
"Y#	c #C3C0B9",
"Z#	c #ABB3B5",
"`#	c #717A7F",
" $	c #384249",
".$	c #313B42",
"+$	c #3B444B",
"@$	c #72787D",
"#$	c #B0B7B9",
"$$	c #CED0CD",
"%$	c #D0BFAE",
"&$	c #D1A882",
"*$	c #D4A472",
"=$	c #D4A573",
"-$	c #D4A674",
";$	c #A0876C",
">$	c #8A735C",
",$	c #B4865B",
"'$	c #CD9B6A",
")$	c #CC9A69",
"!$	c #CC9968",
"~$	c #CC996A",
"{$	c #C6A07E",
"]$	c #C0B3A6",
"^$	c #BCBFBD",
"/$	c #A3AAAD",
"($	c #7B8386",
"_$	c #646D6F",
":$	c #6E7578",
"<$	c #989C9D",
"[$	c #BCB8B3",
"}$	c #CAB4A3",
"|$	c #CDA481",
"1$	c #CF9E70",
"2$	c #CCA279",
"3$	c #C5AF9A",
"4$	c #B8B4AF",
"5$	c #989D9F",
"6$	c #70777B",
"7$	c #5D6569",
"8$	c #6D7478",
"9$	c #979D9F",
"0$	c #BEBFBD",
"a$	c #CDC1B4",
"b$	c #CDAC8C",
"c$	c #D1A173",
"d$	c #D3A373",
"e$	c #BD9166",
"f$	c #A0876D",
"g$	c #89745D",
"h$	c #B3865B",
"i$	c #CA9969",
"j$	c #CC9967",
"k$	c #C9996A",
"l$	c #C39E7B",
"m$	c #C0AB9B",
"n$	c #B9B1A9",
"o$	c #AAA6A1",
"p$	c #A09C98",
"q$	c #A79F9B",
"r$	c #B8ABA1",
"s$	c #C5AB96",
"t$	c #CBA27D",
"u$	c #CE9D70",
"v$	c #CBA179",
"w$	c #C4A891",
"x$	c #B7AA9E",
"y$	c #A49F99",
"z$	c #999794",
"A$	c #A3A19C",
"B$	c #B7AFA8",
"C$	c #C5B3A2",
"D$	c #CBA989",
"E$	c #CFA174",
"F$	c #D1A071",
"G$	c #D3A272",
"H$	c #D5A575",
"I$	c #9F886E",
"J$	c #89755D",
"K$	c #B08458",
"L$	c #C89766",
"M$	c #CC9969",
"N$	c #CD9968",
"O$	c #CC9966",
"P$	c #CB9866",
"Q$	c #C99767",
"R$	c #C5976E",
"S$	c #C19C7B",
"T$	c #C1A288",
"U$	c #C2A58D",
"V$	c #C3A389",
"W$	c #C79F7C",
"X$	c #CB9C70",
"Y$	c #CE9E6B",
"Z$	c #CC9E71",
"`$	c #C79F7B",
" %	c #C2A388",
".%	c #C0A790",
"+%	c #C2A890",
"@%	c #C7A587",
"#%	c #D2A171",
"$%	c #D2A172",
"%%	c #D3A472",
"&%	c #D5A473",
"*%	c #D3A372",
"=%	c #BD9267",
"-%	c #9F8970",
";%	c #88765D",
">%	c #AE8256",
",%	c #C69463",
"'%	c #CB9767",
")%	c #CB9867",
"!%	c #CA9765",
"~%	c #C99663",
"{%	c #CA9766",
"]%	c #C99867",
"^%	c #CA9968",
"/%	c #CB9967",
"(%	c #CB9A67",
"_%	c #CC9C69",
":%	c #CD9C69",
"<%	c #CE9D6A",
"[%	c #D09E6D",
"}%	c #CD9D6C",
"|%	c #CD9E6D",
"1%	c #CF9F6F",
"2%	c #D2A271",
"3%	c #D1A270",
"4%	c #D3A271",
"5%	c #9F8A72",
"6%	c #AD8155",
"7%	c #C49262",
"8%	c #C99665",
"9%	c #C89463",
"0%	c #C79462",
"a%	c #C89564",
"b%	c #C99664",
"c%	c #CA9764",
"d%	c #CB9965",
"e%	c #CB9865",
"f%	c #CA9866",
"g%	c #CD9A69",
"h%	c #CE9A69",
"i%	c #CC9A68",
"j%	c #CE9C6B",
"k%	c #CF9C6B",
"l%	c #CE9D69",
"m%	c #CF9D6B",
"n%	c #D2A170",
"o%	c #D1A16F",
"p%	c #A08B74",
"q%	c #86745C",
"r%	c #AC8054",
"s%	c #C49362",
"t%	c #CA9666",
"u%	c #C99565",
"v%	c #C79463",
"w%	c #C79363",
"x%	c #C89562",
"y%	c #CC9868",
"z%	c #CD9B69",
"A%	c #CE9C69",
"B%	c #D1A06E",
"C%	c #D1A06F",
"D%	c #D3A270",
"E%	c #D1A070",
"F%	c #BC9065",
"G%	c #A08C75",
"H%	c #84745D",
"I%	c #AB7F54",
"J%	c #C69362",
"K%	c #C79362",
"L%	c #CE9C6A",
"M%	c #CC9B6A",
"N%	c #D09F6F",
"O%	c #BC8F65",
"P%	c #9D8B74",
"Q%	c #86775F",
"R%	c #AC8155",
"S%	c #C59363",
"T%	c #C89563",
"U%	c #CB9968",
"V%	c #CC9C6A",
"W%	c #D2A16F",
"X%	c #D19F6E",
"Y%	c #BB8F64",
"Z%	c #9C8B73",
"`%	c #887962",
" &	c #AE8257",
".&	c #C59463",
"+&	c #C99765",
"@&	c #CA9867",
"#&	c #D2A06F",
"$&	c #BB8E64",
"%&	c #9C8B74",
"&&	c #887A65",
"*&	c #AF8358",
"=&	c #C59362",
"-&	c #C59261",
";&	c #C59161",
">&	c #C89765",
",&	c #CB9A68",
"'&	c #CB9B69",
")&	c #B98C62",
"!&	c #9A8A73",
"~&	c #897B66",
"{&	c #AE8157",
"]&	c #C39160",
"^&	c #C59260",
"/&	c #C69262",
"(&	c #C89464",
"_&	c #C49060",
":&	c #CC9B69",
"<&	c #CD9C6C",
"[&	c #B68B61",
"}&	c #988974",
"|&	c #887A66",
"1&	c #AB7E54",
"2&	c #C08E5D",
"3&	c #C3915E",
"4&	c #C4915F",
"5&	c #C49160",
"6&	c #C99764",
"7&	c #C89565",
"8&	c #CA9967",
"9&	c #CC9A67",
"0&	c #CC9C6B",
"a&	c #B68C62",
"b&	c #998977",
"c&	c #867965",
"d&	c #A97C52",
"e&	c #BF8D5C",
"f&	c #C89462",
"g&	c #C99866",
"h&	c #CA9865",
"i&	c #CD9D6B",
"j&	c #B78D63",
"k&	c #9A8C7A",
"l&	c #857865",
"m&	c #AA7D53",
"n&	c #BF8E5C",
"o&	c #C3905F",
"p&	c #C79665",
"q&	c #C79664",
"r&	c #CC9D6C",
"s&	c #B78E64",
"t&	c #9B8F7D",
"u&	c #867A67",
"v&	c #AA7E54",
"w&	c #BF8E5D",
"x&	c #C79564",
"y&	c #C89665",
"z&	c #CB9C6B",
"A&	c #99907F",
"B&	c #887B69",
"C&	c #A97D55",
"D&	c #BD8D5E",
"E&	c #C39060",
"F&	c #C28F5E",
"G&	c #C59262",
"H&	c #C79464",
"I&	c #CB9B6A",
"J&	c #B68E64",
"K&	c #969181",
"L&	c #877C69",
"M&	c #A87C54",
"N&	c #BB8B5D",
"O&	c #C2905F",
"P&	c #C38F5F",
"Q&	c #C28E5E",
"R&	c #C18E5D",
"S&	c #B68E65",
"T&	c #939283",
"U&	c #867D6B",
"V&	c #A77B54",
"W&	c #BA8A5C",
"X&	c #C08E5E",
"Y&	c #C18F5E",
"Z&	c #C28F5F",
"`&	c #C18E5E",
" *	c #C18D5D",
".*	c #CB9868",
"+*	c #CA9A69",
"@*	c #B58E64",
"#*	c #919385",
"$*	c #87806F",
"%*	c #A77C55",
"&*	c #BF8C5C",
"**	c #C08D5C",
"=*	c #C08F5E",
"-*	c #C08D5E",
";*	c #C18D5F",
">*	c #C28E5F",
",*	c #C18D5E",
"'*	c #C18E5F",
")*	c #C49261",
"!*	c #C39260",
"~*	c #C49161",
"{*	c #C69462",
"]*	c #C69564",
"^*	c #C89664",
"/*	c #C79565",
"(*	c #C79666",
"_*	c #CA9767",
":*	c #929387",
"<*	c #878273",
"[*	c #BB8A5D",
"}*	c #C08D5D",
"|*	c #C08C5E",
"1*	c #C69363",
"2*	c #C69464",
"3*	c #C99766",
"4*	c #C99968",
"5*	c #B58D65",
"6*	c #929388",
"7*	c #888577",
"8*	c #A77D55",
"9*	c #BC8A5D",
"0*	c #BF8C5B",
"a*	c #BE8C5B",
"b*	c #C28F60",
"c*	c #BF8C5D",
"d*	c #BF8B5D",
"e*	c #C08C5D",
"f*	c #C39161",
"g*	c #C99969",
"h*	c #B68E66",
"i*	c #92968A",
"j*	c #8A8A7C",
"k*	c #A77D56",
"l*	c #BC895C",
"m*	c #C28D5E",
"n*	c #C08C5C",
"o*	c #BE8B5A",
"p*	c #BE8B5B",
"q*	c #BF8D5D",
"r*	c #BF8B5C",
"s*	c #BE8B5C",
"t*	c #BD895A",
"u*	c #BE8A5B",
"v*	c #BF8B5B",
"w*	c #C18F60",
"x*	c #C99868",
"y*	c #B89068",
"z*	c #94988C",
"A*	c #8F8F82",
"B*	c #A87F58",
"C*	c #BB895B",
"D*	c #C08B5C",
"E*	c #BE8A5A",
"F*	c #BD8A5A",
"G*	c #BC8859",
"H*	c #BD8959",
"I*	c #BF8D5E",
"J*	c #BF8D5F",
"K*	c #C89666",
"L*	c #C89768",
"M*	c #BB936A",
"N*	c #9A9E91",
"O*	c #8C958B",
"P*	c #A8845F",
"Q*	c #B98A5C",
"R*	c #BE8D5E",
"S*	c #BC8C5D",
"T*	c #BB8B5C",
"U*	c #BB8A5B",
"V*	c #BA8A5B",
"W*	c #BA895A",
"X*	c #B98859",
"Y*	c #B9895A",
"Z*	c #BA895B",
"`*	c #B88859",
" =	c #B9895B",
".=	c #B9895C",
"+=	c #BA8A5D",
"@=	c #BA8B5E",
"#=	c #BC8C5E",
"$=	c #BD8D5F",
"%=	c #BE8F60",
"&=	c #BE9061",
"*=	c #BF9263",
"==	c #C09364",
"-=	c #C19365",
";=	c #C39667",
">=	c #BB9770",
",=	c #9BA69B",
"'=	c #759E9E",
")=	c #968F7A",
"!=	c #A58F71",
"~=	c #A78E6E",
"{=	c #A68C6C",
"]=	c #A58A6A",
"^=	c #A58867",
"/=	c #A48766",
"(=	c #A38564",
"_=	c #A38463",
":=	c #A28463",
"<=	c #A08362",
"[=	c #9F8361",
"}=	c #A08462",
"|=	c #A18564",
"1=	c #A28564",
"2=	c #A18464",
"3=	c #A18465",
"4=	c #A28566",
"5=	c #A38566",
"6=	c #A28567",
"7=	c #A28568",
"8=	c #A48769",
"9=	c #A5896A",
"0=	c #A58A6C",
"a=	c #A58B6E",
"b=	c #A58D70",
"c=	c #A59072",
"d=	c #A69276",
"e=	c #A79379",
"f=	c #A9977E",
"g=	c #A49E89",
"h=	c #8BAFAD",
"  . + @ # $ % & * = - ; > , ' ) ! ~ ! { ) ) ) ] ^ / ( _ / / : < [ } | 1 2 3 4 5 ",
"6 7 8 9 0 a b c d e f g h i j k l m n o p q r s t u v v w x x l y z A B C D E F ",
"G H I J K L M K N O P O P Q R S T U V Q W X X Y Z Z `  ...+.@.R #.U $.%.%.&.*.=.",
"-.;.>.,.,.'.).).!.~.{.{.M ].^./.(._.^.:.<.[.}.|.&.1.2.2.@._.3._.R T 4.5.6.f 7.8.",
"9.0.a.b.c.d.e.f.g.h.i.i.j.!.~.k.J l.l.m.:.:.].].<.g n.n._.o.3._.p.T q.U r.<.s.t.",
"u.v.w.x.y.z.A.B.C.C.D.E.F.G.H.I.J.K.L.J m.l.M.N.O.P.Q.R.S.@.3._.R V T.R Q M U.V.",
"W.X.Y.Z.Z.`. +.+++@+#+$+%+&+*+=+-+;+>+,+K.'+)+!+~+{+]+^+/+(+_+:+<+<+<+O O l.U.[+",
"}+|+1+2+3+4+5+6+7+8+9+0+a+b+c+d+e+f+g+h+i+j+k+l+m+n+o+p+q+r+s+].N t+L N N ~.u+v+",
"}+w+1+x+y+z+A+B+C+D+E+F+G+H+I+J+K+L+M+N+O+P+Q+R+S+T+U+V+W+X+Y+Z+`+K  @K N ~..@+@",
"@@#@$@y+1+1+%@&@*@=@-@;@>@,@'@)@!@~@{@]@^@/@(@_@:@<@[@}@|@1@2@3@`+L 4@4@L 5@.@6@",
"7@8@1+4+1+9@0@a@b@c@d@e@f@g@h@i@j@k@l@m@n@o@p@q@r@s@t@u@v@w@x@y@z@N k.5@A@B@C@D@",
"E@#@%@5+4+F@G@H@I@J@K@L@M@N@O@P@Q@R@S@T@U@V@W@X@Y@Z@`@ #.#+#@###$#{.k.5@%#i.&#*#",
"7@|+=#z+y+y+-#;#>#,#'#)#!#~#{#]#^#/#(#_#:#<#[#}#|#1#2#3#4#5#6#7#K.5@5@8#5@h.9#0#",
"a#b#=#z+$@c#d#e#f#g#h#i#~#j#k#l#m#n#o#p#q#r#s#t#u#v#w#x#y#z#A#B#C#B@%#~.{.h.D#E#",
"F#G#H#%@I#I#J#K#L#M#N#O#P#Q#R#S#T#U#V#W#X#Y#Z#`# $.$+$@$#$$$%$&$*$=$-$5@~.h.9#;$",
">$,$=#'$)$!$!$~${$]$^$/$($_$:$<$[$}$|$1$2$3$4$5$6$7$8$9$0$a$b$c$d$i.=$'.~.h.e$f$",
"g$h$i$)$!$!$j$!$k$l$m$n$o$p$q$r$s$t$u$F@F@v$w$x$y$z$A$B$C$D$E$F$G$=$C#B@H$d$9#I$",
"J$K$L$M$N$j$O$O$P$Q$R$S$T$U$V$W$X$%@z+Y$y+4+Z$`$ %.%+%@%v$++#%$%d$=$%%*$&%*%=%-%",
";%>%,%'%)%!%~%!%P${%{%]%^%/%(%_%%@'$:%:%<%z+9@[%1+}%|%1%B.$%G$G$*%2%3%4%*$*%=%5%",
";%6%7%8%8%9%0%a%8%b%b%c%d%e%f%!$g%h%g%i%!$g%j%k%l%<%m%$@F@`.n%2%2%o%o%n%4%#%e$p%",
"q%r%s%t%u%9%v%w%v%v%0%x%c%!%!%{%)%y%!$)%P$!$I#I#z%A%m%j%j%1+x+B%C%C%C%n%D%E%F%G%",
"H%I%s%8%8%b%0%J%K%v%0%x%b%!%b%8%{%{%{%{%P$/%)$)$i%i%L%'$M%%@y+y+4+x+3+o%n%N%O%P%",
"Q%R%S%u%u%T%0%0%v%a%~%x%T%a%a%8%{%)%{%!%c%f%U%U%U%!$)$M%V%z+y+1+z+5+x+B%W%X%Y%Z%",
"`% &.&b%a%v%0%T%9%a%T%9%K%J%v%a%8%{%8%b%+&f%@&@&)%U%=#M%%@1+y+z+j%z+y+3+#&3+$&%&",
"&&*&=&0%v%v%v%a%9%a%8%a%-&;&J%v%v%a%a%>&@&@&{%@&^%,&'&M%M%%@j%I#'$j%4+2+B%9@)&!&",
"~&{&]&^&^&/&J%(&a%8%8%a%-&_&;&-&J%v%a%8%f%f%t%{%U%,&=#=#)$:&z%I#j%y+4+4+4+<&[&}&",
"|&1&2&3&4&-&/&v%a%a%v%w%-&5&;&J%J%J%K%T%6&b%u%7&8%{%@&8&/%9&i%A+z+y+y+1+1+0&a&b&",
"c&d&e&3&5&;&/&J%(&v%;&;&;&5&-&/&/&-&/&f&b%b%a%w%J%v%>&g&f%h&/%:&M%i&5+5+5+0&j&k&",
"l&m&n&^&-&;&;&-&J%-&5&5&o&o&5&5&5&-&-&K%v%9%v%-&5&J%p&L$q&q&g&,&:&A+i&z+1+r&s&t&",
"u&v&w&5&-&5&5&;&;&5&_&_&_&5&5&_&o&5&/&J%J%J%J%5&o&-&x&y&y&q&y&g&U%,&=#:&A+z&s&A&",
"B&C&D&]&E&F&o&;&5&5&5&5&5&_&o&o&F&F&_&5&;&-&/&5&_&G&H&x&a%a%x&a%>&g&]%@&)$I&J&K&",
"L&M&N&O&P&Q&F&_&5&5&;&;&5&o&F&Q&R&R&F&F&P&5&-&-&J%v%v%w%v%a%a%H&x&L$@&@&!$I&S&T&",
"U&V&W&X&R&Q&F&Q&Q&F&o&O&Y&Z&Z&F&`& *`&F&F&_&-&-&=&=&G&-&-&v%8%a%a%L$]%.*!$+*@*#*",
"$*%*W&&*&***R& *R&F&Y&=*-*;*>*F&`&,*'*Z&Z&5&-&)*!*]&~*J%{*]*^*a%x&/*(*_*U%i$S&:*",
"<*%*[*}*******}*`&Z&O&Y&-*|*'*F&`&'*'*Q&F&_&5&5&)*)*G&,%x&x&,%1*1*2*/*3*@&4*5*6*",
"7*8*9*,*}*0*a*2&'*b*Z&`&}*c*-*2&2&c*d*e* *F&F&F&o&]&f*7%=&G&-&-&-&.&]*p&]%g*h*i*",
"j*k*l*m*n*o*p*q*'*,*n*0*p*r*c*e&e&s*t*u*v*n*0*v***`&w*w*Z&P&_&_&E&)*=&q&x*g*y*z*",
"A*B*C*,*D*E*F*v*r*v*u*E*E*u*&*&*&*F*G*H*E*E*E*E*u*r*I*J*|*,*Q&Q&Z&E&7%2*K*L*M*N*",
"O*P*Q*R*S*T*T*T*U*V*V*W*X*Y*V*T*T*Z*`*`* =Y*Y*Z*Z*.=+=@=#=$=D&$=%=&=*===-=;=>=,=",
"'=)=!=~={=]=^=/=(=_=(=:=<=[=}=|=1=1=2=2=3=3=3=4=5=4=6=7=8=9=v+0=a=b=c=d=e=f=g=h="};
