/* XPM */
static char * walls_xpm[] = {
"40 40 288 2",
"  	c None",
". 	c #2B2E27",
"+ 	c #2B3230",
"@ 	c #252928",
"# 	c #212322",
"$ 	c #202221",
"% 	c #262723",
"& 	c #272C2A",
"* 	c #20211F",
"= 	c #212222",
"- 	c #262925",
"; 	c #1C1E1C",
"> 	c #232523",
", 	c #242828",
"' 	c #202322",
") 	c #222522",
"! 	c #252623",
"~ 	c #282E2D",
"{ 	c #222424",
"] 	c #282D2A",
"^ 	c #2A312F",
"/ 	c #262928",
"( 	c #252622",
"_ 	c #282C29",
": 	c #1F211E",
"< 	c #272A27",
"[ 	c #232522",
"} 	c #252A29",
"| 	c #212220",
"1 	c #202422",
"2 	c #242624",
"3 	c #262B29",
"4 	c #242726",
"5 	c #292E2B",
"6 	c #2B3334",
"7 	c #273030",
"8 	c #242626",
"9 	c #252D2C",
"0 	c #252D2D",
"a 	c #202220",
"b 	c #242727",
"c 	c #212423",
"d 	c #283132",
"e 	c #252C2C",
"f 	c #242B2B",
"g 	c #282D2D",
"h 	c #262F2E",
"i 	c #191E1E",
"j 	c #2C3637",
"k 	c #282F2F",
"l 	c #242928",
"m 	c #222423",
"n 	c #242625",
"o 	c #272E2E",
"p 	c #262C2C",
"q 	c #242B2A",
"r 	c #283232",
"s 	c #272A26",
"t 	c #222120",
"u 	c #232423",
"v 	c #212525",
"w 	c #242524",
"x 	c #212221",
"y 	c #232322",
"z 	c #232524",
"A 	c #232323",
"B 	c #242827",
"C 	c #222322",
"D 	c #232827",
"E 	c #1F2322",
"F 	c #222221",
"G 	c #101010",
"H 	c #232928",
"I 	c #242929",
"J 	c #232221",
"K 	c #1F201E",
"L 	c #21201F",
"M 	c #242A29",
"N 	c #222323",
"O 	c #212624",
"P 	c #202423",
"Q 	c #262824",
"R 	c #1F2220",
"S 	c #1E1E1D",
"T 	c #242826",
"U 	c #242A2A",
"V 	c #252B2A",
"W 	c #121211",
"X 	c #232929",
"Y 	c #222725",
"Z 	c #252A2A",
"` 	c #1D1F1D",
" .	c #202424",
"..	c #232625",
"+.	c #232626",
"@.	c #242621",
"#.	c #232525",
"$.	c #232725",
"%.	c #222726",
"&.	c #242725",
"*.	c #20201F",
"=.	c #151615",
"-.	c #222828",
";.	c #1F1F1D",
">.	c #252929",
",.	c #272925",
"'.	c #252C2B",
").	c #212120",
"!.	c #252E2D",
"~.	c #21211F",
"{.	c #141413",
"].	c #232624",
"^.	c #262E2E",
"/.	c #232A2A",
"(.	c #262F2F",
"_.	c #1F2221",
":.	c #1B1D1B",
"<.	c #222827",
"[.	c #222625",
"}.	c #242C2B",
"|.	c #232727",
"1.	c #20201E",
"2.	c #101110",
"3.	c #293232",
"4.	c #212726",
"5.	c #262D2D",
"6.	c #1E2120",
"7.	c #232A29",
"8.	c #111111",
"9.	c #1D1D1C",
"0.	c #1F1F1E",
"a.	c #232424",
"b.	c #151514",
"c.	c #1A1B1A",
"d.	c #181817",
"e.	c #151515",
"f.	c #171615",
"g.	c #151919",
"h.	c #111110",
"i.	c #161615",
"j.	c #171918",
"k.	c #151616",
"l.	c #141514",
"m.	c #1A1A18",
"n.	c #131312",
"o.	c #1B1B1A",
"p.	c #141414",
"q.	c #151918",
"r.	c #0D0E0E",
"s.	c #191C1B",
"t.	c #1A1A19",
"u.	c #171715",
"v.	c #191918",
"w.	c #161817",
"x.	c #181B1A",
"y.	c #131313",
"z.	c #181C1B",
"A.	c #262927",
"B.	c #222525",
"C.	c #232726",
"D.	c #1B2121",
"E.	c #1F2222",
"F.	c #212524",
"G.	c #2A3233",
"H.	c #232828",
"I.	c #2A3333",
"J.	c #242B29",
"K.	c #1F2120",
"L.	c #262B2B",
"M.	c #222626",
"N.	c #202728",
"O.	c #222524",
"P.	c #1D1E1C",
"Q.	c #161717",
"R.	c #272E2F",
"S.	c #273131",
"T.	c #1E1F1E",
"U.	c #242525",
"V.	c #1C1C1B",
"W.	c #2E3A3B",
"X.	c #272F2F",
"Y.	c #222220",
"Z.	c #141615",
"`.	c #252B2B",
" +	c #2B3536",
".+	c #272723",
"++	c #1F1E1D",
"@+	c #222727",
"#+	c #1E1D1C",
"$+	c #282823",
"%+	c #1C1F1E",
"&+	c #232422",
"*+	c #282925",
"=+	c #1F201F",
"-+	c #212626",
";+	c #252E2E",
">+	c #141515",
",+	c #1E201F",
"'+	c #121212",
")+	c #282824",
"!+	c #141616",
"~+	c #212121",
"{+	c #1D1D1B",
"]+	c #222523",
"^+	c #222A2A",
"/+	c #1A1A15",
"(+	c #191917",
"_+	c #171817",
":+	c #0E0E0E",
"<+	c #111212",
"[+	c #121514",
"}+	c #10100F",
"|+	c #191A19",
"1+	c #1A1B19",
"2+	c #111211",
"3+	c #151614",
"4+	c #151716",
"5+	c #181A18",
"6+	c #171716",
"7+	c #292D2A",
"8+	c #2B3435",
"9+	c #232927",
"0+	c #242B2C",
"a+	c #293233",
"b+	c #2D3838",
"c+	c #212422",
"d+	c #1F2525",
"e+	c #293333",
"f+	c #262F30",
"g+	c #2D3839",
"h+	c #283030",
"i+	c #212523",
"j+	c #282B28",
"k+	c #272D2E",
"l+	c #252B29",
"m+	c #121414",
"n+	c #2A3334",
"o+	c #222321",
"p+	c #272D2D",
"q+	c #0F0F0F",
"r+	c #1E201E",
"s+	c #232321",
"t+	c #202120",
"u+	c #161715",
"v+	c #232521",
"w+	c #232826",
"x+	c #272C2C",
"y+	c #1E1E1C",
"z+	c #202524",
"A+	c #242723",
"B+	c #222928",
"C+	c #292E2A",
"D+	c #1E1F1D",
"E+	c #242C2C",
"F+	c #111312",
"G+	c #1F211F",
"H+	c #252828",
"I+	c #191914",
"J+	c #181716",
"K+	c #191A18",
"L+	c #111010",
"M+	c #121312",
"N+	c #121313",
"O+	c #181918",
"P+	c #191B19",
"Q+	c #262D2C",
"R+	c #303C3D",
"S+	c #2F3B3C",
"T+	c #293131",
"U+	c #2C3738",
"V+	c #293435",
"W+	c #283131",
"X+	c #2D3738",
"Y+	c #292B28",
"Z+	c #1D1C1A",
"`+	c #141313",
" @	c #212727",
".@	c #242927",
"+@	c #2D383A",
"@@	c #262622",
"#@	c #201F1E",
"$@	c #181917",
"%@	c #242A28",
"&@	c #282A26",
"*@	c #222624",
"=@	c #151717",
"-@	c #161716",
";@	c #212321",
". + @ # $ % & * = $ - ; > , ' ) ! ~ { ' ] ^ / # $ ( _ : # $ < [ > } | 1 2 3 4   ",
"5 6 7 4 8 9 0 a 8 8 } b c d e f 4 g h i j k f 8 b l f m 8 n o c b p q d 4 b r   ",
"s o t u v w x y b y z A B z C D y E F G H I J l K , L y n y 4 F M B N O F P L   ",
"Q 4 R e y 4 z y u S T y y U x l y z V W X | Y } y Z y y u ` n y u  ...z y 8 +.  ",
"@.#.I $.%.I &.*.Z Z u y F Z C y u I u =.-.m , # U Z z ;.} } z F y >.F y 4 b z   ",
",.'.B u u ).y !...~.F y H !.u *.U $.y {.X T V y u F ].^.C ).y u /.V y S H 4 y   ",
"[ (._.y u *.y Z n F J T I e y ).e ]._.:.<.U [.y u F u 0 u F y T }.B F y '.F H   ",
"] |.B y y 1.l H q F F u l u * >.u u y 2.3.$ z y y ).V 4.|.y )., u z 1.5.u y t   ",
",.6.y y ).b $ ^.C 7.u y y y y y y y w 8.I 9.y ).y V c 0 0.'.a.y y y y y y y z   ",
"b.c.d.e.f.g.h.{.i.j.k.l.m.n.o.d.o.p.q.r.s.t.o.u.e.k.h.o.v.w.x.{.o.y.p.n.p.i.z.  ",
"A.M $ B.[.C.D.[.o [.E.F.G.H.D H I.k [.[.c J.K.[.[.L.P M.^.c N.O.'.p [.V 3.o [.  ",
"w u P.z u M.4 z V Q.R.>.p B 4 u 7 S.u a.# m T.w u e u U.@ V.W.l 8 p u z S.X.u   ",
"A.M Y.b [.M y Z u Z.`.`.'.I y ).} a.0.$.a.V *.8 <.n U.l 2 G  +`.>.n y ).Z F ).  ",
".+U.++8 l 0 T F y p.M '.*.u t B *./.u y J { ).I B } &.).y Z.9 @+y u t V #+0 y   ",
"$+z z 8 '.K.u B x %+B.u y u F l z , u T J w C.l M c n C |.o.q y y u O.z , n &+  ",
"*+z 9 =+B >.&+y , {.[.I ~.].B C.} 5.-+u 4 z ^.1.} B y y 8 G }.O.y u I C.>.;+<.  ",
".+).U y &.F y ].u >+[.,+B z b '.f 7.y u K z b y T y > u w '+}.P u I b q 4.e y   ",
")+F C V l ).S b T !+[.a.y 0.O.z ~+a.0.z y t .., Z F K.u B b.}.y y {+n 8 m F ).  ",
"*+K 4 # 4 n '.l u t.P B ]+'.Z B u >.z u w ;.Z B.u >.Z V y i.^+z B B M '.y Z &.  ",
"/+8.i.W i.(+h._+8.:+<+[+}+|+h.2.1+d.b.'+2+G h.3+W G 8.1+G (+4+5+h.2+G 1+6+m.(+  ",
"7+f H 8+9+0+_.a+`.5.U b+j X X |.'.c+X I k d+I e+Y f+V g+h+X e g+ +H X [.M i+X   ",
"j+k+%.A C `.`.*.y y z u # `.f 4.u F l+m+n+B 6.w C @ X C A y 4 ).8 l X }.y o+'.  ",
"j+p+F u C.u S y `.y 4 u m u C # y H ).q+X ..y l F w S y , y Z F #.z y r+J 7.S   ",
"Q O.' Z s+I 4 y u t+&.y y I x B y 4 } u+X *.H B y Z z y n K ..y u %.m z y l B   ",
"v+4 Z w+<.8 z *.`.V y y F e y y #.B y 8.<...b c+`.Z u T.l `.y F z l y F l z y   ",
"j+x+B y ..F y h Z S ).u -+0 y Y.B C.y d.X ..B y $.F n (.C.y+F 8 z+} y ).I ].y   ",
"A+0 P y y 0.y H 8 y y T Z Z y C '.z _.|+e B+Y y F ).u X u y F T '.4 F ..V F <.  ",
"C++.u y y F `.}.l y y u , u D+>.u y y 2+h C A y y y e E+..y y B u &.y+9 y y y   ",
"Q ' y y ~.Z T.Z y M n u y F y F y y B F+I D+y ~.u Z G+>.~.V H+y y F y t y u >.  ",
"I+q+i.W J+K+c.G h.8.b.:.u.y.n.L+q+d.=.M+{.G 1+G h.N+F+h.i.8.8.O+(+J+h.G :+h.P+  ",
"+ Q+R+(.a+e W.S+e 9+L.(.Y }.}.T+E+f U+9+V+F.W+e+0 0 R+W.f D U+q Y }.U X+^+^.3.  ",
"Y+..Z+C.L |.u z &.`+p  @`.z z F `.e L y m ..{+n *.I J 4 z 6+ +<., B J J 0 M Y.  ",
"% B F u M .@u I u 4+o >., `.y x `.u *.T F B F u e ..4 n &.8.+@, n b y x I A F   ",
"@@I #@Z } ^.4 *.y {.C.B t ..;.n ).f ..y F l *.Z `.0 z ;.y $@%@z y z 0.b *.^.u   ",
")+y l C '.K.y , x %+[.u F y y Z 4 , C T y u M ..J.x n a.|.v.}.F y y 8 U.>...z   ",
"&@n } C z n u y `.{.[.e F 4 `.*@4 ^.X y l u 0 F U.T y y @ L+}.l y z q w+I h v   ",
".+*.<.y z *.y m u =@[.t+8 t+I `.M H.y ..*.x l y ].t u y 4 -@}.# y F.>.'.<.l y   ",
")+F u e Z y ,+>.T i.v u u C m u t+z D+y y F z Z '.u E 8 &.'+f y u 0.z z ~+m |   ",
"*+;@w D+w u b T y 6+F.`.| M 8 [.u n u y n ).n t+y n 4 4 y n.f %.z 4 #.%@y 8 >   ",
"                                                                                "};
